<?xml version="1.0" standalone="no"?>
<!DOCTYPE svg PUBLIC "-//W3C//DTD SVG 20010904//EN"
 "http://www.w3.org/TR/2001/REC-SVG-20010904/DTD/svg10.dtd">
<svg version="1.0" xmlns="http://www.w3.org/2000/svg"
 width="1288.000000pt" height="278.000000pt" viewBox="0 0 1288.000000 278.000000"
 preserveAspectRatio="xMidYMid meet">

<g transform="translate(0.000000,278.000000) scale(0.100000,-0.100000)"
fill="#000000" stroke="none">
<path d="M4260 2627 c-14 -5 -122 -57 -240 -115 -335 -163 -342 -166 -435
-166 -62 -1 -92 4 -132 22 -28 12 -56 22 -61 22 -27 0 -42 -127 -21 -174 28
-61 153 -80 239 -36 64 33 136 89 205 160 116 120 186 149 222 93 17 -25 18
-80 18 -868 l0 -840 -23 -47 c-13 -25 -29 -49 -37 -52 -8 -3 -15 -10 -15 -16
0 -6 68 -10 195 -10 175 0 225 6 180 23 -8 4 -24 25 -37 49 l-23 43 -2 958 c0
527 -3 960 -5 961 -1 2 -14 -1 -28 -7z"/>
<path d="M4735 2552 c-142 -73 -148 -77 -113 -80 72 -6 68 49 68 -881 0 -576
-4 -848 -12 -878 -6 -24 -23 -57 -39 -72 -15 -16 -25 -31 -22 -35 4 -3 97 -6
207 -6 l201 0 -37 30 c-23 19 -41 45 -48 68 -6 24 -10 366 -10 985 l0 947 -22
-1 c-13 0 -90 -35 -173 -77z"/>
<path d="M537 2512 l-298 -2 30 -26 c63 -52 62 -43 59 -950 -3 -778 -4 -821
-22 -857 -10 -21 -27 -42 -37 -48 -11 -5 -19 -14 -19 -18 0 -5 286 -8 636 -7
555 1 638 3 644 16 13 25 60 226 60 255 0 25 -4 23 -68 -41 -83 -83 -153 -127
-270 -167 -87 -30 -87 -30 -368 -35 l-281 -4 -6 23 c-9 31 -9 947 0 977 l6 24
231 -4 c220 -3 233 -4 267 -26 21 -12 45 -34 54 -48 9 -14 19 -23 22 -20 8 8
9 217 1 222 -3 2 -16 -9 -28 -26 -12 -17 -39 -39 -60 -50 -36 -18 -60 -20
-263 -20 -225 0 -225 0 -231 23 -8 29 -8 741 0 761 5 14 38 16 263 16 224 0
268 -3 337 -20 127 -32 237 -92 323 -178 40 -40 75 -71 77 -69 6 5 -65 280
-74 289 -8 8 -573 14 -985 10z"/>
<path d="M8556 2409 c-78 -61 -74 -200 6 -249 50 -30 128 -28 168 6 84 71 81
188 -6 245 -41 27 -132 26 -168 -2z"/>
<path d="M7632 1988 c-143 -22 -302 -143 -377 -288 -20 -39 -28 -32 -49 41
-31 111 -119 204 -218 234 -68 20 -222 20 -279 0 -110 -38 -228 -127 -263
-198 -9 -17 -27 -45 -40 -61 l-24 -28 -4 130 c-2 72 -6 134 -9 137 -7 7 -315
-140 -324 -155 -4 -6 5 -10 22 -10 68 -1 73 -26 67 -338 l-5 -257 -36 -75
c-108 -225 -257 -413 -353 -445 -57 -19 -83 -14 -122 23 -68 63 -78 178 -71
778 6 469 5 474 -14 474 -11 0 -82 -30 -157 -66 l-138 -66 34 -28 33 -28 3
-413 c2 -430 8 -511 43 -604 39 -106 102 -152 219 -162 61 -5 75 -3 133 24 78
37 186 136 250 230 26 38 60 87 76 110 16 22 39 61 50 85 11 23 34 66 51 93
17 28 37 66 46 85 22 48 158 319 207 410 112 211 236 319 367 320 103 0 174
-68 218 -206 35 -111 43 -198 49 -559 7 -441 -3 -514 -76 -551 -13 -7 -19 -14
-14 -17 15 -9 402 -6 408 3 3 5 -3 14 -14 19 -10 6 -28 30 -40 54 -20 41 -21
59 -21 368 0 178 -5 379 -10 447 -9 118 -9 125 13 165 59 111 147 200 241 246
60 29 77 33 127 29 134 -10 210 -141 239 -414 7 -58 10 -250 8 -459 -3 -325
-5 -363 -21 -393 -10 -19 -32 -39 -49 -46 -50 -21 -13 -26 205 -26 l202 0 -28
25 c-62 59 -61 51 -69 510 -3 231 -9 436 -13 455 -38 209 -92 302 -208 364
-65 34 -173 48 -265 34z"/>
<path d="M2454 1975 c-98 -27 -178 -72 -243 -137 -85 -85 -97 -99 -112 -131
-7 -15 -16 -27 -21 -27 -4 0 -8 63 -8 140 l0 140 -87 -44 c-49 -24 -117 -56
-153 -71 -36 -15 -72 -33 -80 -41 -12 -12 -11 -14 12 -14 14 0 36 -9 49 -19
l24 -19 0 -504 c0 -548 -2 -567 -55 -612 -17 -13 -30 -27 -30 -30 0 -4 96 -6
212 -6 l213 1 -32 20 c-20 13 -38 37 -50 67 -16 43 -18 86 -18 487 l0 440 30
52 c51 87 145 185 209 216 71 35 141 57 182 57 73 0 167 -68 208 -149 66 -130
80 -258 80 -701 0 -360 0 -366 -22 -412 -13 -26 -32 -50 -43 -53 -56 -18 -2
-25 194 -25 189 1 210 2 193 15 -11 8 -23 15 -28 15 -4 0 -15 15 -25 33 -16
29 -19 75 -24 452 -5 388 -7 428 -28 519 -42 182 -96 261 -217 318 -62 29 -79
33 -174 35 -68 2 -123 -2 -156 -12z"/>
<path d="M9845 1984 c-158 -41 -284 -126 -361 -241 -36 -55 -39 -56 -45 -33
-4 14 -7 73 -8 133 -1 128 1 126 -115 64 -45 -24 -103 -52 -129 -62 -26 -10
-50 -22 -53 -27 -4 -5 9 -22 27 -38 l34 -28 -1 -503 c-1 -547 -3 -569 -54
-613 -17 -13 -30 -27 -30 -30 0 -3 93 -6 208 -6 l207 0 -27 23 c-14 12 -35 38
-45 57 -17 32 -18 68 -18 481 l0 445 24 47 c32 63 129 176 177 208 43 28 91
51 143 68 115 37 232 -25 293 -154 62 -134 81 -314 76 -740 -3 -309 -4 -321
-25 -362 -13 -23 -32 -44 -43 -48 -54 -17 8 -25 192 -25 l200 0 -31 35 c-16
19 -34 52 -40 72 -5 21 -12 216 -14 433 -6 404 -13 492 -52 600 -60 169 -166
240 -365 246 -58 1 -114 1 -125 -2z"/>
<path d="M11040 1983 c-101 -12 -279 -57 -316 -78 -70 -41 -89 -87 -59 -145
21 -40 53 -60 96 -60 37 0 82 27 210 127 96 74 166 111 238 124 204 36 311
-66 337 -323 7 -67 6 -68 -17 -69 -39 -1 -105 -16 -274 -65 -117 -33 -155 -48
-253 -99 -156 -80 -268 -189 -329 -320 -25 -53 -28 -71 -28 -160 0 -89 3 -106
28 -156 84 -171 350 -232 564 -128 100 48 239 216 251 302 3 21 11 41 18 44 8
3 14 10 14 17 0 23 21 86 29 86 5 0 11 -42 15 -93 11 -154 67 -296 196 -496
91 -142 265 -287 411 -342 103 -39 284 -22 409 39 77 38 78 58 6 128 -55 53
-57 54 -116 54 -43 0 -88 -10 -162 -36 -87 -30 -117 -36 -193 -38 -158 -2
-193 17 -246 129 -60 127 -61 143 -69 620 -8 483 -10 498 -74 640 -34 74 -116
171 -183 218 -21 14 -69 38 -108 53 -62 24 -86 27 -215 29 -80 2 -161 1 -180
-2z m518 -528 c5 -94 -14 -249 -44 -365 -66 -251 -206 -389 -395 -390 -113 0
-216 74 -258 186 -31 81 -27 236 8 304 56 108 148 185 286 241 95 38 330 99
370 96 30 -2 30 -2 33 -72z"/>
<path d="M3524 1897 c-60 -30 -126 -62 -146 -72 -41 -19 -49 -35 -18 -35 11 0
29 -9 40 -20 19 -19 20 -33 20 -510 0 -309 -4 -509 -11 -542 -8 -41 -19 -60
-47 -85 l-37 -33 211 0 211 0 -32 35 c-22 23 -37 52 -44 85 -7 34 -11 254 -11
640 0 489 -2 590 -14 590 -7 0 -62 -24 -122 -53z"/>
<path d="M8619 1873 c-150 -74 -153 -76 -119 -84 18 -4 40 -15 47 -25 17 -23
19 -997 2 -1059 -6 -22 -25 -55 -42 -72 l-31 -33 215 0 c176 0 210 2 190 13
-33 17 -61 56 -71 103 -5 21 -10 308 -10 637 0 503 -2 597 -14 597 -8 0 -83
-34 -167 -77z"/>
<path d="M6297 1258 c-37 -27 -111 -140 -132 -203 -10 -28 -21 -105 -26 -174
-12 -183 -26 -228 -77 -255 -26 -15 -26 -15 33 -16 33 0 131 -2 218 -4 136 -4
157 -2 146 10 -6 8 -17 14 -23 14 -6 0 -21 15 -31 33 -18 29 -20 55 -23 325
l-3 292 -27 0 c-15 0 -40 -10 -55 -22z"/>
</g>
</svg>
